<?xml version="1.0" standalone="no"?>
<!DOCTYPE svg PUBLIC "-//W3C//DTD SVG 20010904//EN"
 "http://www.w3.org/TR/2001/REC-SVG-20010904/DTD/svg10.dtd">
<svg version="1.0" xmlns="http://www.w3.org/2000/svg"
 width="412.000000pt" height="412.000000pt" viewBox="0 0 412.000000 412.000000"
 preserveAspectRatio="xMidYMid meet">
<metadata>
Created by potrace 1.14, written by Peter Selinger 2001-2017
</metadata>
<g transform="translate(0.000000,412.000000) scale(0.100000,-0.100000)"
fill="#000000" stroke="none">
<path d="M2017 4094 c-1 -1 -42 -4 -92 -8 -49 -3 -105 -8 -122 -11 -18 -3 -45
-8 -60 -9 -16 -2 -28 -5 -28 -6 0 -1 -9 -3 -20 -4 -11 -2 -40 -7 -65 -11 -25
-4 -56 -9 -70 -11 -45 -6 -65 -12 -103 -28 -20 -8 -37 -12 -37 -9 0 3 -6 1
-12 -4 -7 -5 -35 -18 -63 -28 -123 -44 -238 -100 -312 -152 -17 -13 -36 -23
-42 -23 -5 0 -14 -6 -18 -13 -4 -8 -21 -22 -38 -33 -28 -17 -146 -106 -171
-129 -57 -51 -184 -179 -184 -186 0 -5 -4 -9 -9 -9 -5 0 -36 -37 -70 -82 -34
-46 -70 -93 -81 -105 -10 -13 -16 -23 -13 -23 4 0 -3 -10 -14 -22 -19 -21
-123 -184 -123 -193 0 -3 -22 -51 -49 -107 -40 -85 -70 -158 -76 -188 -1 -3
-9 -30 -19 -60 -10 -30 -20 -65 -22 -77 -12 -63 -15 -80 -18 -103 -2 -14 -7
-40 -11 -59 -17 -77 -28 -499 -13 -518 5 -7 5 -14 -2 -18 -6 -3 -7 -11 -4 -17
4 -6 8 -38 10 -72 3 -33 7 -68 10 -76 4 -8 8 -30 9 -47 2 -18 9 -56 16 -85 7
-29 13 -55 14 -58 0 -3 3 -9 6 -15 4 -5 10 -25 14 -43 21 -99 118 -321 193
-446 23 -37 42 -72 42 -77 0 -5 5 -9 10 -9 6 0 10 -5 10 -10 0 -39 289 -366
386 -435 15 -11 33 -26 40 -33 7 -7 35 -29 61 -49 26 -20 50 -39 53 -43 11
-14 203 -129 245 -146 25 -11 45 -22 45 -26 0 -5 8 -8 18 -8 10 0 22 -4 28 -9
11 -10 175 -67 219 -76 36 -7 58 -13 65 -16 3 -1 10 -3 15 -4 6 -1 17 -5 25
-8 16 -6 58 -13 200 -32 78 -11 445 -14 505 -4 28 4 66 10 85 13 19 3 47 8 63
11 15 3 37 7 50 9 12 2 42 10 67 17 25 7 48 13 53 15 4 1 9 3 12 4 3 1 8 3 13
4 40 10 154 53 240 92 29 13 55 24 58 24 10 0 169 93 172 101 2 5 9 9 16 9 7
0 21 8 32 18 10 9 31 23 47 31 15 8 27 18 27 23 0 4 7 8 15 8 8 0 15 5 15 12
0 6 3 9 6 6 3 -3 15 4 28 16 12 11 44 39 71 61 74 61 155 142 155 155 0 6 5 8
10 5 6 -3 10 -2 10 2 0 5 13 23 29 41 17 17 28 32 26 32 -2 0 14 19 36 42 21
23 39 45 39 48 0 4 13 21 28 38 16 17 35 44 43 59 8 16 17 30 21 33 13 10 98
162 147 265 49 101 116 292 127 362 8 47 8 49 22 98 5 22 13 72 17 110 12 118
8 518 -5 555 -1 3 -1 15 0 28 1 12 -3 22 -8 22 -6 0 -10 10 -10 23 0 12 -3 36
-6 52 -4 17 -14 64 -22 105 -15 70 -94 286 -132 357 -9 18 -34 65 -54 105 -20
40 -48 88 -62 107 -15 19 -26 41 -26 49 0 7 -4 11 -9 8 -5 -3 -16 9 -25 27 -8
19 -26 44 -39 58 -12 13 -31 37 -41 52 -24 38 -50 68 -121 141 -54 54 -87 84
-185 169 -14 12 -42 33 -63 47 -20 14 -37 29 -37 33 0 5 -4 5 -10 2 -5 -3 -10
-2 -10 2 0 5 -16 17 -35 27 -19 11 -35 23 -35 28 0 4 -6 8 -14 8 -7 0 -31 12
-52 27 -96 65 -381 190 -414 181 -3 -1 -15 4 -28 11 -22 12 -66 22 -109 25
-13 0 -23 4 -23 7 0 3 -21 9 -47 12 -27 4 -59 9 -73 12 -64 15 -353 38 -363
29z"/>
</g>
</svg>
